<?xml version="1.0" encoding="UTF-8"?>
<!-- 2026-04-27 11:01:50 Generated by QCAD 3.32.4 SVG Exporter -->
<svg width="200.0473mm" height="65mm" viewBox="-100.0237 -240 200.0473 65" version="1.1" xmlns="http://www.w3.org/2000/svg" style="stroke-linecap:round;stroke-linejoin:round;fill:none">
    <g transform="scale(1,-1)">
        <!-- Line -->
        <path d="M-59.4291,175 L-20.4291,175 " style="stroke:#c0c0c0;stroke-width:0.25;"/>
        <!-- Line -->
        <path d="M-85,175 L85,175 " style="stroke:#c0c0c0;stroke-width:0.25;"/>
        <!-- Line -->
        <path d="M-63,235 L66.0563,235 " style="stroke:#c0c0c0;stroke-width:0.25;"/>
        <!-- Arc -->
        <path d="M-100,190 A15,15 0 0,1 -85,175" style="stroke:#c0c0c0;stroke-width:0.25;"/>
        <!-- Arc -->
        <path d="M85,175 A15,15 0 0,1 100,190" style="stroke:#c0c0c0;stroke-width:0.25;"/>
        <!-- Line -->
        <path d="M-60,240 L60,240 " style="stroke:#c0c0c0;stroke-width:0.25;"/>
        <!-- Line -->
        <path d="M-60,240 L-60,235 " style="stroke:#c0c0c0;stroke-width:0.25;"/>
        <!-- Line -->
        <path d="M60,235 L60,235 " style="stroke:#c0c0c0;stroke-width:0.25;"/>
        <!-- Line -->
        <path d="M60,240 L60,235 " style="stroke:#c0c0c0;stroke-width:0.25;"/>
        <!-- Spline -->
        <path d="M-60,235 C-74.8837,235.5878 -81.5095,231.9843 -86.198,228.2258 C-90.8864,224.4673 -93.6375,220.5538 -95.6717,216.8147 C-97.706,213.0756 -99.0234,209.5108 -99.5969,203.7419 C-100.1704,197.973 -100,190 -100,190" style="stroke:#c0c0c0;stroke-width:0.25;"/>
        <!-- Spline -->
        <path d="M60,235 C74.8837,235.5878 81.5095,231.9843 86.198,228.2258 C90.8864,224.4673 93.6375,220.5538 95.6717,216.8147 C97.706,213.0756 99.0234,209.5108 99.5969,203.7419 C100.1704,197.973 100,190 100,190" style="stroke:#c0c0c0;stroke-width:0.25;"/>
        <!-- Line -->
        <path d="M-20.199,175 L-20.1246,175 " style="stroke:#ff00ff;stroke-width:0.25;"/>
    </g>
</svg>
