<?xml version="1.0" encoding="UTF-8"?>
<!-- RBB Left Side Elevation — QCAD geometry, front faces RIGHT -->
<svg width="200.0473mm" height="65mm" viewBox="-100.0237 -240 200.0473 65" version="1.1"
     xmlns="http://www.w3.org/2000/svg"
     style="stroke-linecap:round;stroke-linejoin:round;">
  <g transform="scale(1,-1)">

    <path d="M -85,175 
L 85,175
A 15,15 0 0,1 100,190
C 100.1704,197.973 99.5969,203.7419 99.0234,209.5108
C 97.706,213.0756 95.6717,216.8147 93.6375,220.5538
C 90.8864,224.4673 86.198,228.2258 81.5095,231.9843
C 74.8837,235.5878 60,235 60,235
L 60,240
L -60,240
L -60,235
C -74.8837,235.5878 -81.5095,231.9843 -86.198,228.2258
C -90.8864,224.4673 -93.6375,220.5538 -95.6717,216.8147
C -97.706,213.0756 -99.5969,203.7419 -100.1704,197.973
C -100,190 -100,190
A 15,15 0 0,1 -85,175
Z"
          style="fill:#E8DEB8;stroke:#B8A878;stroke-width:0.8;"/>

    <path d="M -59.4291,175 L -20.4291,175"
          style="stroke:#B8A878;stroke-width:1.5;fill:none;"/>

    <!-- Eye on RIGHT side (front) -->
    <ellipse cx="82" cy="220" rx="3" ry="4.5"
             style="fill:#1a1a1a;stroke:none;"/>
    <ellipse cx="82" cy="220" rx="2.3" ry="3.5"
             style="fill:#E8B84B;stroke:none;"/>
    <circle  cx="82" cy="220" r="1.4"
             style="fill:#1a1a1a;stroke:none;"/>
    <circle  cx="83.5" cy="221.5" r="0.6"
             style="fill:#ffffff;stroke:none;"/>

  </g>
</svg>